<svg width="4439" height="1435" viewBox="0 0 4439 1435" fill="none" xmlns="http://www.w3.org/2000/svg">
<path d="M1140.98 455.144C1132.39 396.818 1110.59 341.021 1076.82 290.939C1043.06 240.856 997.988 197.47 944.188 163.257C890.388 129.044 828.911 104.674 763.267 91.5382C697.624 78.4026 629.099 76.7587 561.606 86.7004C494.112 96.6421 428.972 117.975 369.904 149.48C310.836 180.986 258.997 222.047 217.347 270.32C175.697 318.593 145.051 373.132 127.16 430.823C109.269 488.514 104.483 548.228 113.074 606.554L374.389 568.063C370.165 539.392 372.518 510.039 381.313 481.68C390.107 453.321 405.172 426.512 425.645 402.783C446.119 379.054 471.601 358.87 500.636 343.383C529.672 327.896 561.692 317.41 594.869 312.523C628.046 307.636 661.73 308.444 693.998 314.901C726.266 321.358 756.486 333.337 782.932 350.155C809.378 366.973 831.532 388.3 848.13 412.918C864.728 437.537 875.445 464.965 879.668 493.636L1140.98 455.144Z" fill="url(#paint0_linear_1_2)"/>
<path d="M15.1803 844.961C17.5681 904.599 33.359 963.116 61.6515 1017.17C89.9439 1071.22 130.184 1119.76 180.074 1160C229.964 1200.24 288.526 1231.4 352.418 1251.7C416.31 1272 484.28 1281.04 552.447 1278.31C620.614 1275.59 687.644 1261.14 749.708 1235.79C811.772 1210.45 867.656 1174.71 914.169 1130.61C960.682 1086.5 996.913 1034.91 1020.79 978.767C1044.67 922.625 1055.74 863.033 1053.35 803.395L936 850.5L765.5 922.5C764.955 935 763.941 958.243 765.5 922.5C753.525 950.653 748.092 955.722 724.768 977.836C701.444 999.95 673.421 1017.87 642.299 1030.58C611.176 1043.29 577.565 1050.54 543.382 1051.9C509.2 1053.27 475.116 1048.74 443.078 1038.56C411.039 1028.38 381.673 1012.75 356.656 992.574C331.638 972.396 311.46 948.059 297.273 920.954C283.086 893.849 275.167 864.505 273.97 834.6L15.1803 844.961Z" fill="url(#paint1_linear_1_2)"/>
<path d="M112.68 605.523L245.682 586.021L314.68 575.523L374.18 567.023L373.68 562.023L373.18 555.523L372.68 552.523L372.68 548.023L372.18 543.523L372.18 540.523L372.18 537.523L372.68 529.523L372.68 526.523L372.68 525.023L373.18 523.523L374.18 512.523L374.68 509.523L375.18 506.523L378.68 489.523L381.68 479.023L384.18 471.023L1053.93 802.86L765 922.534L950.361 1012.62L112.68 605.523Z" fill="url(#paint2_linear_1_2)"/>
<path d="M1112.53 1223C1152.9 1215.19 1183.49 1192.4 1204.33 1154.64L1205.3 1150.73V793.312C1205.3 785.174 1203.19 779.478 1198.96 776.223C1192.45 771.014 1182.52 766.945 1169.17 764.016C1139.55 757.505 1120.67 753.924 1112.53 753.273C1123.6 748.391 1173.4 729.836 1261.95 697.609C1275.62 692.727 1288.96 688.495 1301.98 684.914V722.512L1303.45 721.535C1336 697.121 1372.3 684.914 1412.34 684.914C1451.72 684.914 1488.02 697.121 1521.22 721.535C1554.1 745.624 1580.3 779.152 1599.84 822.121C1619.37 865.09 1629.13 911.151 1629.13 960.305V963.234V1126.81C1629.13 1134.95 1631.25 1140.64 1635.48 1143.9C1641.99 1149.11 1651.92 1153.18 1665.27 1156.11C1694.89 1162.62 1713.77 1166.2 1721.91 1166.85C1703.68 1174.99 1653.87 1193.54 1572.49 1222.51C1558.82 1227.39 1545.47 1231.63 1532.45 1235.21V962.258V960.305C1532.45 886.086 1518.29 831.073 1489.97 795.266C1463.28 761.411 1431.22 744.484 1393.78 744.484C1393.13 744.484 1392.48 744.484 1391.83 744.484C1350.49 744.484 1320.54 759.458 1301.98 789.406V1150.73L1302.96 1155.13C1320.54 1191.26 1351.14 1213.89 1394.76 1223H1112.53ZM1881.57 958.352C1881.57 1031.59 1889.71 1085.63 1905.99 1120.46C1927.15 1165.71 1956.12 1188.33 1992.9 1188.33C1997.79 1188.33 2002.67 1188.33 2007.55 1188.33C2034.57 1188.33 2060.61 1175.8 2085.68 1150.73L2090.56 1143.41C2095.44 1138.2 2097.88 1127.3 2097.88 1110.7V809.426C2097.88 792.824 2095.6 781.919 2091.05 776.711L2086.16 769.387C2061.1 744.322 2035.06 731.789 2008.04 731.789C2003.16 731.789 1998.27 731.789 1993.39 731.789C1956.61 731.789 1927.64 754.413 1906.48 799.66C1889.88 835.142 1881.57 888.039 1881.57 958.352ZM1775.62 953.957C1775.62 905.78 1785.22 861.021 1804.43 819.68C1823.63 778.013 1850 745.298 1883.53 721.535C1918.03 697.121 1956.77 684.914 1999.74 684.914C2037.17 684.914 2083.23 694.517 2137.92 713.723C2216.37 741.392 2266.18 759.947 2287.34 769.387C2280.17 769.712 2261.29 773.293 2230.7 780.129C2217.67 783.059 2207.75 787.128 2200.91 792.336C2196.68 795.591 2194.56 801.288 2194.56 809.426V1110.7C2194.56 1119.16 2196.52 1124.86 2200.42 1127.79C2207.26 1132.99 2217.19 1137.06 2230.21 1139.99C2260.81 1146.83 2279.69 1150.41 2286.85 1150.73C2265.69 1160.17 2215.88 1178.73 2137.43 1206.4C2082.75 1225.6 2036.68 1235.21 1999.25 1235.21C1956.28 1235.21 1917.54 1223 1883.04 1198.59C1849.51 1174.82 1823.14 1142.11 1803.94 1100.44C1785.06 1059.75 1775.62 1010.92 1775.62 953.957ZM2731.67 961.77C2731.67 888.527 2723.53 834.491 2707.26 799.66C2686.1 754.413 2654.69 731.789 2613.02 731.789C2581.44 731.789 2552.96 744.322 2527.57 769.387L2522.69 776.711C2518.13 781.919 2515.85 792.824 2515.85 809.426V1097.51V1101.91C2516.5 1112.32 2521.22 1124.04 2530.01 1137.06C2547.26 1162.78 2572.98 1175.64 2607.16 1175.64C2607.81 1175.64 2608.3 1175.64 2608.62 1175.64C2648.34 1175.64 2678.94 1158.06 2700.42 1122.9C2721.26 1087.42 2731.67 1033.71 2731.67 961.77ZM2326.4 1434.43C2366.76 1426.61 2397.36 1403.83 2418.2 1366.07L2419.17 1362.16V809.426C2419.17 801.613 2417.06 795.917 2412.82 792.336C2406.96 787.128 2397.04 783.059 2383.04 780.129C2353.74 773.618 2334.86 770.038 2326.4 769.387C2347.56 759.947 2397.36 741.392 2475.81 713.723C2530.5 694.517 2577.7 684.914 2617.41 684.914C2618.72 684.914 2620.02 684.914 2621.32 684.914C2659.41 684.914 2695.7 697.121 2730.21 721.535C2763.41 744.973 2789.78 777.688 2809.31 819.68C2828.51 861.021 2838.12 905.78 2838.12 953.957C2838.12 1007.67 2828.35 1055.68 2808.82 1098C2788.96 1140.97 2762.76 1174.5 2730.21 1198.59C2697.33 1223 2661.03 1235.21 2621.32 1235.21C2583.23 1235.21 2548.08 1223.81 2515.85 1201.03V1362.16L2516.83 1366.55C2534.41 1402.69 2565.01 1425.31 2608.62 1434.43H2326.4ZM3316.63 961.77C3316.63 888.527 3308.49 834.491 3292.22 799.66C3271.06 754.413 3239.65 731.789 3197.98 731.789C3166.4 731.789 3137.92 744.322 3112.53 769.387L3107.65 776.711C3103.09 781.919 3100.81 792.824 3100.81 809.426V1097.51V1101.91C3101.46 1112.32 3106.18 1124.04 3114.97 1137.06C3132.23 1162.78 3157.94 1175.64 3192.12 1175.64C3192.77 1175.64 3193.26 1175.64 3193.59 1175.64C3233.3 1175.64 3263.9 1158.06 3285.38 1122.9C3306.22 1087.42 3316.63 1033.71 3316.63 961.77ZM2911.36 1434.43C2951.72 1426.61 2982.32 1403.83 3003.16 1366.07L3004.13 1362.16V809.426C3004.13 801.613 3002.02 795.917 2997.79 792.336C2991.93 787.128 2982 783.059 2968 780.129C2938.7 773.618 2919.82 770.038 2911.36 769.387C2932.52 759.947 2982.32 741.392 3060.77 713.723C3115.46 694.517 3162.66 684.914 3202.38 684.914C3203.68 684.914 3204.98 684.914 3206.28 684.914C3244.37 684.914 3280.66 697.121 3315.17 721.535C3348.37 744.973 3374.74 777.688 3394.27 819.68C3413.48 861.021 3423.08 905.78 3423.08 953.957C3423.08 1007.67 3413.31 1055.68 3393.78 1098C3373.92 1140.97 3347.72 1174.5 3315.17 1198.59C3282.29 1223 3245.99 1235.21 3206.28 1235.21C3168.2 1235.21 3133.04 1223.81 3100.81 1201.03V1362.16L3101.79 1366.55C3119.37 1402.69 3149.97 1425.31 3193.59 1434.43H2911.36ZM3496.32 753.273C3519.76 742.857 3569.56 724.302 3645.73 697.609C3657.78 693.378 3671.12 689.146 3685.77 684.914V1150.73L3686.75 1155.13C3704.33 1191.26 3734.93 1213.89 3778.55 1223H3496.32C3536.68 1215.19 3567.28 1192.4 3588.12 1154.64L3589.09 1150.73V793.312C3589.09 785.174 3586.98 779.478 3582.75 776.223C3575.91 770.689 3565.01 766.457 3550.03 763.527C3518.13 756.691 3500.23 753.273 3496.32 753.273ZM3592.51 583.352C3580.14 570.656 3573.96 555.357 3573.96 537.453C3573.96 519.549 3580.14 504.413 3592.51 492.043C3604.88 479.348 3619.86 473 3637.43 473C3655.01 473 3669.99 479.348 3682.36 492.043C3694.73 504.413 3700.91 519.549 3700.91 537.453C3700.91 555.357 3694.73 570.656 3682.36 583.352C3669.99 595.721 3655.01 601.906 3637.43 601.906C3619.86 601.906 3604.88 595.721 3592.51 583.352ZM3851.79 959.816C3851.79 910.337 3861.55 864.276 3881.09 821.633C3900.62 778.99 3926.82 745.461 3959.7 721.047C3991.93 697.284 4028.22 685.24 4068.59 684.914H4070.05C4108.14 684.914 4143.94 696.958 4177.47 721.047C4211.33 745.461 4235.74 774.758 4250.71 808.938L4257.55 824.562L4258.04 825.539C4263.9 841.49 4266.83 856.464 4266.83 870.461C4266.83 888.365 4260.64 903.99 4248.27 917.336C4236.23 930.357 4221.26 936.867 4203.35 936.867C4185.77 936.867 4170.8 930.682 4158.43 918.312C4146.06 905.617 4139.88 890.318 4139.88 872.414C4139.88 854.51 4146.06 839.374 4158.43 827.004C4165.92 819.517 4174.22 814.146 4183.33 810.891C4177.8 801.776 4170.15 791.685 4160.38 780.617C4140.53 758.156 4114.81 745.461 4083.23 742.531H4082.26C4039.61 742.531 4007.06 759.947 3984.6 794.777C3961.82 830.259 3950.42 884.784 3950.42 958.352V960.305C3950.42 1035.5 3964.91 1090.84 3993.88 1126.32C4023.18 1161.8 4053.61 1179.54 4085.19 1179.54H4086.16C4125.88 1179.54 4159.89 1162.13 4188.21 1127.3C4199.61 1113.3 4209.86 1094.26 4218.98 1070.17L4275.62 1086.28C4274.64 1090.51 4273.5 1094.26 4272.2 1097.51C4254.95 1138.2 4228.74 1171.73 4193.59 1198.1C4160.71 1222.84 4121.97 1235.21 4077.38 1235.21H4075.91C4030.99 1235.21 3992.25 1223.16 3959.7 1199.07C3927.15 1174.66 3900.94 1140.97 3881.09 1098C3861.55 1055.68 3851.79 1009.62 3851.79 959.816Z" fill="url(#paint3_linear_1_2)"/>
<defs>
<linearGradient id="paint0_linear_1_2" x1="897.003" y1="307.999" x2="811.494" y2="978.635" gradientUnits="userSpaceOnUse">
<stop stop-color="#650455"/>
<stop offset="1" stop-color="#BE64B0" stop-opacity="0"/>
</linearGradient>
<linearGradient id="paint1_linear_1_2" x1="330" y1="1080.5" x2="1133.5" y2="363.5" gradientUnits="userSpaceOnUse">
<stop stop-color="#511A48"/>
<stop offset="1" stop-color="#FD6FDE" stop-opacity="0"/>
</linearGradient>
<linearGradient id="paint2_linear_1_2" x1="417.68" y1="629.024" x2="2223.5" y2="1746.5" gradientUnits="userSpaceOnUse">
<stop stop-color="#8D0077" stop-opacity="0.478431"/>
<stop offset="1" stop-color="#7A7A7A" stop-opacity="0"/>
</linearGradient>
<linearGradient id="paint3_linear_1_2" x1="2765.61" y1="1053.5" x2="2765.61" y2="337" gradientUnits="userSpaceOnUse">
<stop stop-color="#2B0424"/>
<stop offset="1" stop-color="#A91592" stop-opacity="0"/>
</linearGradient>
</defs>
</svg>
