<svg width="1207" height="1315" viewBox="0 0 1207 1315" fill="none" xmlns="http://www.w3.org/2000/svg">
<path d="M1140.98 455.144C1132.39 396.818 1110.59 341.021 1076.82 290.939C1043.06 240.856 997.988 197.47 944.188 163.257C890.388 129.044 828.911 104.674 763.267 91.5382C697.624 78.4026 629.099 76.7587 561.606 86.7004C494.112 96.6421 428.972 117.975 369.904 149.48C310.836 180.986 258.997 222.047 217.347 270.32C175.697 318.593 145.051 373.132 127.16 430.823C109.269 488.514 104.483 548.228 113.074 606.554L374.389 568.063C370.165 539.392 372.518 510.039 381.313 481.68C390.107 453.321 405.172 426.512 425.645 402.783C446.119 379.054 471.601 358.87 500.636 343.383C529.672 327.896 561.692 317.41 594.869 312.523C628.046 307.636 661.73 308.444 693.998 314.901C726.266 321.358 756.486 333.337 782.932 350.155C809.378 366.973 831.532 388.3 848.13 412.918C864.728 437.537 875.445 464.965 879.668 493.636L1140.98 455.144Z" fill="url(#paint0_linear_2_9)"/>
<path d="M15.1803 844.961C17.5681 904.599 33.359 963.116 61.6515 1017.17C89.9439 1071.22 130.184 1119.76 180.074 1160C229.964 1200.24 288.526 1231.4 352.418 1251.7C416.31 1272 484.28 1281.04 552.447 1278.31C620.614 1275.59 687.644 1261.14 749.708 1235.79C811.772 1210.45 867.656 1174.71 914.169 1130.61C960.682 1086.5 996.913 1034.91 1020.79 978.767C1044.67 922.625 1055.74 863.033 1053.35 803.395L936 850.5L765.5 922.5C764.955 935 763.941 958.243 765.5 922.5C753.525 950.653 748.092 955.722 724.768 977.836C701.444 999.95 673.421 1017.87 642.299 1030.58C611.176 1043.29 577.565 1050.54 543.382 1051.9C509.2 1053.27 475.116 1048.74 443.078 1038.56C411.039 1028.38 381.673 1012.75 356.656 992.574C331.638 972.396 311.46 948.059 297.273 920.954C283.086 893.849 275.167 864.505 273.97 834.6L15.1803 844.961Z" fill="url(#paint1_linear_2_9)"/>
<path d="M112.68 605.523L245.682 586.021L314.68 575.523L374.18 567.023L373.68 562.023L373.18 555.523L372.68 552.523L372.68 548.023L372.18 543.523L372.18 540.523L372.18 537.523L372.68 529.523L372.68 526.523L372.68 525.023L373.18 523.523L374.18 512.523L374.68 509.523L375.18 506.523L378.68 489.523L381.68 479.023L384.18 471.023L1053.93 802.86L765 922.534L950.361 1012.62L112.68 605.523Z" fill="url(#paint2_linear_2_9)"/>
<defs>
<linearGradient id="paint0_linear_2_9" x1="897.003" y1="307.999" x2="811.494" y2="978.635" gradientUnits="userSpaceOnUse">
<stop stop-color="#650455"/>
<stop offset="1" stop-color="#BE64B0" stop-opacity="0"/>
</linearGradient>
<linearGradient id="paint1_linear_2_9" x1="330" y1="1080.5" x2="1133.5" y2="363.5" gradientUnits="userSpaceOnUse">
<stop stop-color="#511A48"/>
<stop offset="1" stop-color="#FD6FDE" stop-opacity="0"/>
</linearGradient>
<linearGradient id="paint2_linear_2_9" x1="417.68" y1="629.024" x2="2223.5" y2="1746.5" gradientUnits="userSpaceOnUse">
<stop stop-color="#8D0077" stop-opacity="0.478431"/>
<stop offset="1" stop-color="#7A7A7A" stop-opacity="0"/>
</linearGradient>
</defs>
</svg>
